#!OML:ASF F:\VICON\USERDATA\INSTALL\Justin_Nancy\Justin_Nancy.ASF
:FULLY-SPECIFIED
:DEGREES
94
root 0.423929 17.7201 -12.0312 -2.08799 2.90989 -1.25575
lowerback 6.25141 -2.47539 -0.73876
upperback 0.788799 -3.25878 3.18592
thorax -2.45963 -1.60823 3.97207
lowerneck -16.667 -2.56356 -9.3131
upperneck 22.3415 -2.01353 3.96045
head 10.0135 -1.26929 2.6803
rclavicle 4.35835e-014 -2.3059e-014
rhumerus -35.7646 -14.724 -75.9778
rradius 25.7823
rwrist 11.8402
rhand -10.3618 9.51682
rfingers 7.12502
rthumb 15.6352 -19.8713
lclavicle 4.35835e-014 -2.3059e-014
lhumerus -26.253 9.35353 84.734
lradius 24.9257
lwrist -8.93507
lhand -15.2255 28.193
lfingers 7.12502
lthumb 10.9472 57.8876
rfemur -11.0214 6.86256 25.4212
rtibia 20.7099
rfoot -2.80302 -6.0173
rtoes 3.75113
lfemur -11.3818 -0.736337 -18.4488
ltibia 65.4249
lfoot 15.9358 -9.65385
ltoes -3.21669
95
root 0.41444 17.7346 -11.8792 -1.99999 3.20268 -1.31803
lowerback 6.16272 -2.51522 -0.632912
upperback 0.827996 -3.30564 3.21259
thorax -2.37065 -1.63412 3.93742
lowerneck -16.8422 -2.63838 -9.43181
upperneck 22.3712 -2.08058 4.01565
head 10.0647 -1.30283 2.71057
rclavicle -2.27111e-014 -4.77083e-015
rhumerus -35.4719 -14.4151 -76.1312
rradius 26.1757
rwrist 11.4392
rhand -10.73 10.746
rfingers 7.12502
rthumb 15.2805 -18.6695
lclavicle -2.27111e-014 -4.77083e-015
lhumerus -26.2491 9.76732 84.7711
lradius 24.7505
lwrist -9.92628
lhand -14.3619 27.9159
lfingers 7.12502
lthumb 11.7801 57.5646
rfemur -10.4094 6.56259 25.5667
rtibia 20.3973
rfoot -3.3613 -6.06385
rtoes 4.14547
lfemur -12.9335 -0.713209 -18.3375
ltibia 66.7117
lfoot 13.6628 -8.89107
ltoes -4.23956
96
root 0.402855 17.7376 -11.7245 -1.99855 3.14919 -1.49091
lowerback 6.06181 -2.42626 -0.452831
upperback 0.815731 -3.17612 3.20393
thorax -2.34657 -1.57107 3.81243
lowerneck -16.3643 -2.68899 -9.39608
upperneck 22.1316 -2.22078 4.06339
head 9.89925 -1.35847 2.70052
rclavicle -2.21148e-014 1.43125e-014
rhumerus -35.4127 -14.2401 -76.2314
rradius 26.4807
rwrist 11.2091
rhand -11.0023 11.1097
rfingers 7.12502
rthumb 15.0183 -18.3257
lclavicle -2.21148e-014 1.43125e-014
lhumerus -26.6851 9.50972 84.8687
lradius 24.7873
lwrist -10.1498
lhand -15.1061 26.1125
lfingers 7.12502
lthumb 11.0624 55.801
rfemur -9.68994 6.38465 25.8932
rtibia 20.2201
rfoot -4.17394 -5.94026
rtoes 5.06871
lfemur -14.1554 -0.23229 -18.067
ltibia 67.8542
lfoot 11.2748 -8.56162
ltoes -7.43199
97
root 0.391614 17.738 -11.5738 -1.97676 3.08685 -1.55195
lowerback 6.04455 -2.31973 -0.415579
upperback 0.785706 -3.03096 3.20955
thorax -2.37944 -1.49813 3.78667
lowerneck -16.0219 -2.68874 -9.28659
upperneck 21.981 -2.26337 3.98222
head 9.78209 -1.3783 2.64692
rclavicle -6.16232e-015 6.36111e-015
rhumerus -35.0706 -14.1591 -76.2336
rradius 26.4301
rwrist 10.9848
rhand -11.1802 11.0199
rfingers 7.12502
rthumb 14.8469 -18.4282
lclavicle -6.16232e-015 6.36111e-015
lhumerus -27.0051 9.56506 84.9421
lradius 25.0058
lwrist -10.7752
lhand -15.7173 24.9964
lfingers 7.12502
lthumb 10.4729 54.7156
rfemur -9.14827 6.35481 26.08
rtibia 20.1585
rfoot -4.70472 -5.88153
rtoes 5.44832
lfemur -15.3581 0.279743 -17.9377
ltibia 68.7619
lfoot 9.05711 -8.0868
ltoes -10.8543
98
root 0.382151 17.7361 -11.4314 -1.88167 2.815 -1.6094
lowerback 6.14115 -2.14504 -0.326347
upperback 0.768836 -2.79016 3.20823
thorax -2.47141 -1.37724 3.72227
lowerneck -16.1474 -2.71917 -9.32626
upperneck 22.0173 -2.30436 4.07179
head 9.82291 -1.38971 2.67988
rclavicle -2.03754e-015 1.90833e-014
rhumerus -34.6486 -14.2049 -76.231
rradius 26.4549
rwrist 10.8578
rhand -11.0519 11.5238
rfingers 7.12502
rthumb 14.9705 -17.9151
lclavicle -2.03754e-015 1.90833e-014
lhumerus -27.0283 9.68331 84.9975
lradius 24.8876
lwrist -11.7098
lhand -14.9296 26.3999
lfingers 7.12502
lthumb 11.2327 56.0791
rfemur -8.75046 6.34029 26.2932
rtibia 20.135
rfoot -4.94119 -5.70169
rtoes 3.97441
lfemur -16.7166 0.850622 -17.85
ltibia 69.4704
lfoot 7.20395 -7.31682
ltoes -11.1247
99
root 0.372496 17.7398 -11.2844 -1.85582 2.51061 -1.66442
lowerback 6.13673 -1.95926 -0.266159
upperback 0.767665 -2.53884 3.19251
thorax -2.49 -1.25211 3.65247
lowerneck -16.007 -2.7693 -9.26216
upperneck 22.0077 -2.40236 4.05686
head 9.79927 -1.43241 2.65123
rclavicle 2.98177e-015 4.29375e-014
rhumerus -34.3433 -13.8596 -76.4132
rradius 26.7214
rwrist 10.3164
rhand -11.2463 11.3793
rfingers 7.12502
rthumb 14.7832 -18.0734
lclavicle 2.98177e-015 4.29375e-014
lhumerus -27.1175 9.77204 85.0578
lradius 24.377
lwrist -11.9848
lhand -17.2902 24.3274
lfingers 7.12502
lthumb 8.95533 54.1173
rfemur -8.10872 6.33807 26.5081
rtibia 20.0347
rfoot -5.17834 -5.57131
rtoes 2.35717
lfemur -18.0206 1.34177 -17.7909
ltibia 69.9464
lfoot 5.40748 -6.37546
ltoes -10.5655
100
root 0.36242 17.7414 -11.1389 -1.82004 2.24339 -1.77696
lowerback 6.11897 -1.80513 -0.193036
upperback 0.744174 -2.32762 3.21229
thorax -2.51999 -1.14673 3.6153
lowerneck -15.7595 -2.84721 -9.21128
upperneck 21.968 -2.53029 3.97744
head 9.74696 -1.49798 2.59817
rclavicle -7.35503e-015 -2.14687e-014
rhumerus -34.116 -13.3343 -76.6625
rradius 27.1754
rwrist 10.0391
rhand -11.7139 11.2077
rfingers 7.12502
rthumb 14.3327 -18.2776
lclavicle -7.35503e-015 -2.14687e-014
lhumerus -27.4205 9.54147 85.3424
lradius 24.175
lwrist -10.2598
lhand -17.9229 24.5437
lfingers 7.12502
lthumb 8.34473 54.3589
rfemur -7.53216 6.40831 26.7616
rtibia 19.9374
rfoot -5.72339 -5.59001
rtoes 3.04979
lfemur -19.2786 1.89636 -17.658
ltibia 70.2465
lfoot 3.5567 -5.81142
ltoes -12.5765
101
root 0.356304 17.7385 -10.9935 -1.68767 1.92831 -1.99631
lowerback 6.00902 -1.63775 0.0678965
upperback 0.672359 -2.08597 3.25417
thorax -2.55571 -1.0275 3.49042
lowerneck -15.4914 -2.90053 -9.31886
upperneck 22.0643 -2.62861 4.07067
head 9.74101 -1.54632 2.63855
rclavicle -3.51849e-014 2.38542e-015
rhumerus -34.1545 -12.7743 -76.8163
rradius 27.831
rwrist 9.57867
rhand -12.036 11.6082
rfingers 7.12502
rthumb 14.0223 -17.8988
lclavicle -3.51849e-014 2.38542e-015
lhumerus -27.9177 9.9127 85.1659
lradius 24.5771
lwrist -11.9937
lhand -14.5315 26.8503
lfingers 7.12502
lthumb 11.6166 56.5084
rfemur -7.16781 6.54082 27.1053
rtibia 19.8896
rfoot -6.50013 -5.55181
rtoes 4.49516
lfemur -20.5053 2.47848 -17.4375
ltibia 70.4128
lfoot 2.20394 -5.40046
ltoes -12.5716
102
root 0.352033 17.7328 -10.8467 -1.66744 1.73267 -1.82752
lowerback 5.93543 -1.48915 0.0286987
upperback 0.763596 -1.89824 3.10397
thorax -2.43526 -0.935762 3.33698
lowerneck -15.5786 -2.91592 -9.34061
upperneck 22.1369 -2.67686 4.2358
head 9.78848 -1.55206 2.69482
rclavicle -6.78353e-015 2.54444e-014
rhumerus -33.8652 -12.6765 -76.9941
rradius 28.2007
rwrist 8.97557
rhand -11.7154 12.0862
rfingers 7.12502
rthumb 14.3313 -17.3992
lclavicle -6.78353e-015 2.54444e-014
lhumerus -28.1066 9.3935 85.3232
lradius 24.4195
lwrist -10.5124
lhand -16.2022 26.9985
lfingers 7.12502
lthumb 10.0051 56.7407
rfemur -6.66664 6.5712 27.026
rtibia 19.9265
rfoot -7.25205 -5.57236
rtoes 5.47526
lfemur -21.4962 2.79525 -17.6818
ltibia 70.3677
lfoot 1.01874 -4.90773
ltoes -10.1396
103
root 0.345656 17.7148 -10.7029 -1.6099 1.54462 -1.88057
lowerback 5.95948 -1.3224 0.187429
upperback 0.852135 -1.66969 3.01445
thorax -2.3776 -0.824363 3.13584
lowerneck -16.0185 -2.95845 -9.20496
upperneck 22.2644 -2.74379 4.29447
head 9.91952 -1.5622 2.68367
rclavicle 1.61016e-014 -2.38542e-014
rhumerus -33.4043 -12.4307 -77.2632
rradius 28.4016
rwrist 8.66185
rhand -12.281 12.606
rfingers 7.12502
rthumb 13.7862 -16.9172
lclavicle 1.61016e-014 -2.38542e-014
lhumerus -28.094 9.54476 85.1997
lradius 24.417
lwrist -11.6839
lhand -15.3794 28.3022
lfingers 7.12502
lthumb 10.7988 58.0046
rfemur -6.22584 6.63423 27.209
rtibia 20.0533
rfoot -7.82951 -5.57246
rtoes 5.33042
lfemur -22.6218 3.06285 -17.6464
ltibia 70.2397
lfoot -0.0684328 -4.51697
ltoes -7.39291
104
root 0.339623 17.6942 -10.5582 -1.53601 1.19738 -2.21041
lowerback 6.01303 -1.13379 0.552015
upperback 0.846765 -1.39141 3.08304
thorax -2.43471 -0.687871 2.98153
lowerneck -16.0585 -3.02379 -9.25927
upperneck 22.254 -2.83197 4.35814
head 9.93199 -1.59949 2.70309
rclavicle 2.25124e-014 -3.57812e-014
rhumerus -33.1789 -11.9562 -77.405
rradius 28.6494
rwrist 8.60924
rhand -13.1795 12.9332
rfingers 7.12502
rthumb 12.9202 -16.6468
lclavicle 2.25124e-014 -3.57812e-014
lhumerus -28.3637 9.8747 85.1435
lradius 24.6967
lwrist -12.5479
lhand -14.0229 30.2912
lfingers 7.12502
lthumb 12.107 59.921
rfemur -5.82978 6.91413 27.7043
rtibia 20.2441
rfoot -8.39912 -5.63344
rtoes 5.09142
lfemur -23.7901 3.48332 -17.2878
ltibia 70.015
lfoot -0.982942 -4.26431
ltoes -6.30691
